<mxfile host="app.diagrams.net" agent="Mozilla/5.0 (Windows NT 10.0; Win64; x64; rv:129.0) Gecko/20100101 Firefox/129.0" version="24.7.6">
  <diagram name="第 1 页" id="oSQBBdOBPjr7G9fCZuvT">
    <mxGraphModel dx="1007" dy="1580" grid="1" gridSize="10" guides="1" tooltips="1" connect="1" arrows="1" fold="1" page="1" pageScale="1" pageWidth="827" pageHeight="1169" math="0" shadow="0">
      <root>
        <mxCell id="0" />
        <mxCell id="1" parent="0" />
        <mxCell id="Bdl3RD1hWaTJGVJCpAx7-1" value="" style="ellipse;whiteSpace=wrap;html=1;fillColor=#FF99CC;shadow=1;" vertex="1" parent="1">
          <mxGeometry x="208" y="189" width="162" height="162" as="geometry" />
        </mxCell>
        <mxCell id="Bdl3RD1hWaTJGVJCpAx7-2" value="" style="ellipse;whiteSpace=wrap;html=1;fillColor=#FFFF99;shadow=1;" vertex="1" parent="1">
          <mxGeometry x="40" y="170" width="200" height="200" as="geometry" />
        </mxCell>
        <mxCell id="Bdl3RD1hWaTJGVJCpAx7-3" value="&lt;div align=&quot;left&quot;&gt;&lt;font style=&quot;font-size: 18px;&quot; face=&quot;Comic Sans MS&quot;&gt;正在施工，還須bypass的偵測器&lt;/font&gt;&lt;/div&gt;" style="text;html=1;align=left;verticalAlign=middle;whiteSpace=wrap;rounded=0;" vertex="1" parent="1">
          <mxGeometry x="70" y="242.5" width="166" height="55" as="geometry" />
        </mxCell>
        <mxCell id="Bdl3RD1hWaTJGVJCpAx7-4" value="&lt;div align=&quot;left&quot;&gt;&lt;font style=&quot;font-size: 18px;&quot; face=&quot;Comic Sans MS&quot;&gt;已施工完成，須解除bypass的偵測器&lt;/font&gt;&lt;/div&gt;" style="text;html=1;align=left;verticalAlign=middle;whiteSpace=wrap;rounded=0;" vertex="1" parent="1">
          <mxGeometry x="240" y="242.5" width="130" height="55" as="geometry" />
        </mxCell>
        <mxCell id="Bdl3RD1hWaTJGVJCpAx7-6" value="" style="shape=image;verticalLabelPosition=bottom;labelBackgroundColor=default;verticalAlign=top;aspect=fixed;imageAspect=0;image=data:image/png,iVBORw0KGgoAAAANSUhEUgAAAlUAAACJCAYAAAAFZc3PAAAafUlEQVR4Xu2dPV7jOheHT1byUpAp+LECWAHcZqq000EJzXSUdNOEErppU01zYQVhBflRTCi4K8krf8u2bMt25M8nt7gzRJaOHmkOfx8dSYuD+kj4WSwW/p+0H0Vf8X8IQAACEIAABCAAgRLNtEBUMT8gAAEIQAACEIBAPQKmQBSiqh5DSkMAAhCAAAQgAAGxFlWwggAEIAABCEAAAhCoJqCnTC2+vr7inKqTk5PqpykBAQhAAAIQgAAEIOATUDoqJsHyH5MCAhBoTeC///6T//3vf63roQIIQAACYyFgvfzH7r+xDCl2QmAYBBBVwxgHrIAABLojgKiyYP35dCnLjwc5PF9ZlC4r8ia3i0c522/l7jQo93a7kD/fDxJX/XYri8cz2W/vJCxirDD3nKGUb/f9u//NxXov26jRlr3gcQjYEEBU2VCiDAQgMCUCiCqr0fyUp8ulfDxo4sd77vNJLpf3EsiW8HOxLhZEXvkfIr81wdRIVPntfsjD4VkCmRfYF+onzZQiIeWJu2t5SfX9Qtaa2IvqzPXZiheFICCCqGIWQAACcyPQWFQFUZBzeY1/sU8NnVmo+L2MhJMXVfrzPYlgGUSTTsVj9kN+y8PHUq7TiqYY3s1rLkIW1ZNEnjxbfbUWR8DKR8MTVX/ke0qUZZ839//mNSMspzbs9OdoBBBVR0NJRRCAwEgIIKraDFQtUWWOdtWPVClBdPlXfvrRrkhM/Rb5kY9U6V1LiyF7UUWkqs0EmfeziKp5jz+9h8AcCSCqWox6LmJUFqnyl+w2skotsdXPqfLa/PVtG+RgxflX/8i/JZGqfP5VkaiqFmdxlK4FNx6dBwFE1TzGmV5CAAIJAURV2WzwREtunS7KPTIsuZWIqmC5VFTe0oN8LLP5TGVG3CRLrF79v77J9nkZ5lCV2KJVaRZVppwqT1Qly4A50ZiNzPEvCQIlBBBVTA8IQGBuBI4iqlSCjpYjpCc8hwnRhrwgD7Sel7XUcrSK60sphYzgySZaB2U9QZHoIk2ghFVVfV80IYw7AgtFVbDrb3chskrlPamf34o82+4qjEWe6uv6XO4/onyukvyvsAN2uVBpoZjePfgqq821lqwftikliflz+9dEf1MEEFVMCAhAYG4EWooqlbN98S7n2q646Bdx9Eu8OKE9+KW8WQU71KJITlV9/gDFEZvkiINAHOnCyvBLP/Vc1fclU6EwYqPtqtN2AQYRnwclSh61ZPJqISSSF4GhVLRINC+Ug8adgl7pm9e9nD2qSNXDSjbXwa7G4qMYEFVzcxZ1+4uoqkuM8hCAwNgJtBRV78Zfur7A2YURjPDYAbXulT4nKZNjFIkx0y/xVH2FxANBs4vbCf6u1s6SM6BSz1Z974e5Spb/bIfeEx+/5Nv2p/zV8p6iCFkSQcrmOWX/nrQXLef9/BvlVwURpo9zkZeX1AEPyUPZaKFRGOYjVd5uRc63sh1ryukEEFXMBwhAYG4EWooqL0fIsI3fFyOengnOUTKJIv9nkhwXkOQcVddnHqQwcnIe1RlFgoqiPVXfl0wF0/lUWnFzdCcRLN9+eQd+elEh/ewrS1Gli6F4udFLVP+l1hZ3slEi6LeKi3liKPr/9tuv9NEP4ZikDh317c/kiRlEJYeIzs1FNO8voqo5O56EAATGSaClqCo4p8r/ZbxLBFf275KPEpWee5V7PoRtiiSlIjL6IZemnKuq70sGtWAJsPik81CwrKJcqCjZvGziZARhJKIePmQZJ4p5/fKS3//I2dpWVEXRs+jw0MiGuuddjXPSY3U3BBBV3XCmFQhAYDgEuhFVoYiKl+YMV7HUEVVxAnXq9PJspEqHrIknY9J8wffG5b9I6OSvnFExuUyuk25DVrBk/14dqUoSxxOBGByx8CDy+Fe+rzbyaBWpyp+oHkSg9on9sWj0xF+dg0WHM7mxpF8CiKp++dM6BCDQPQEnosokkPyfbVbqChdvqSpJUI9jJCUntKfry+ZO6VEWdQBmvPyXh1m6xKiK577Pib+M8Ml8X34fn0lEVR2tULR0melbmID/++wxvusv1/uCHZheufjohH/+ja/RUUrKX0JUZ4wiqrr/dzmJFhFVkxhGOgEBCNQg0FJUvasdY9lE8IKIUZiHdL5ey+5ev7cusDa7azDpQ6a+qJ5su1GeU4l4CBLPtWXJLCjTsmXqcuN8JCoSi68qSnRdeulyRlTldjBWR6o8c99uL+Xvz2C57/urF6D6KV7O1KX6fzaXqiynKhVDiwSUlnuVCETd7rJIXI1ZR9FZEEBUzWKY6SQEIKARaC2q1Kb7VLJ6sKvNHGGJz4QquM9u6d8IXFWfaSu/afkufwZUOmG+6ntfwciiQlQFQqe4z2lxmCyjBeJIT8q3EVVRmWgnoRJXP/7K2flG1L018s+/QXTJJlFd/1eQ302o21IkqjhSAU9STgBRxQyBAATmRqClqPIS1b/LH7XVL74fOJXnlMFZEilKlvhs6svmBHkizhMameW/bE6U6VgB/cT0qu/97iSCMXUMhLd0po5Mfy/svyZOJDoZPTlnK5eP5UfeMhE9Y56Tqvf2X/nn2V+nayCqotww7zR17+gHlbyu2vEiX8FRCprde11kIqrm5izq9hdRVZcY5SEAgbETaCyqmnQ8yavyLgNOf0oT1Zs0doxnCiJV3i67exVVMx4vEC1D5sSVfqSCf4y6f9xE8tGjUMHlyNn6vYjS45mXUK7lOSmhEwmgKDcqHalayfn9vXZ+V9iiLjg9Mfn9T1CPllcVjZF+6rzdyezHgE8dYyeAqBr7CGI/BCBQl0CHoqr8sM1Biqq6NCkPAQjEBBBVTAYIQGBuBDoTVVWnoiOq5jb16O/UCSCqpj7C9A8CEMgScCyqtPvtynKtlFWIKiYnBKZFAFE1rfGkNxCAQDUBx6Kq2gBKQAAC0ySAqJrmuNIrCECgmACiitkBAQg4IYCocoKVSiEAgQETMIqqr6+vQ2TzycmJ/0f1swF3A9MgAAEIQAACEIBAvwRMmmlxUJ/ILJPq6tdkWocABMZAgEjVGEYJGyEAgWMSYPnvmDSpCwIQiAkgqpgMEIDA3AggquY24vQXAh0RQFR1BJpmIACBwRBAVA1mKDAEAtMigKia1njSGwhAoJpAc1GVvVdPb8twYXKxKdpZVn4h82XMwR10wfUtwaeoXPi16e68ah6UgAAEjkTAKKoG7TcyPqaWHzsSNKqBAARGTaClqNrJer8V/97dRp/QiZ2ru+eeg5vwgnvmsoLJtlx0iGikvCqEVyObeQgCELAhUCyqhuc31OnD/oXoyqGFF4n7zkhu5VlC12TTZcpAAAIzJ9CrqDKfoh4IqM0qcW625XRBtny6lOX9ubweshcXz3zE6T4EOiLgSlTZ+gPbclEUXPc5HSGiGQhAYGIEehRVefEUsfWd4WYl++2dnIbLfiaHly6XHhmuvZnYTKU7oyPgRlQ58Bv+kqTwAja6GYbBEBgegR5F1ZvcBp4sH15POTnbcoiq4U0vLJozATeiytYf2JYLUw4kSUGY85jRdwhAoB2B/kRVmMNwXiiqwrwLCXIdKstl8rqIVLWbGDwNgbYEnIiqo/sNLfL17ZeKWL3E3b7Q86vawuB5CEBgFgRaiqrEASW0LuyS133nuJGVKdFd/84XVRblEFWzmLB0cjwE6u3+68tvBBGt3cWFvEuUcqAYh7sUEVbjmW9YCoEhEGgpqlrs4kFUDWH8sQECzgi4i1RZvGRZv4wFourFcEQL0W5nU4OKITBZAk5FVbAbL8PuYh0koJeJKv8tUV/+K3CiejkiVZOdpHRsnASaiqpu/UYoqkxnUpX4l3GOCFZDAAKuCTgVVaXGV+ZGhLtxbMtlGuMt0/XUoX4IlBNoKqq69Rv5M/Di9ste/Bh8CEAAAgYC/Ykq66MSbLdQp3uHqGK+Q6BfAk5ElQO/4UfGdmEEXUdGpKrfCUTrEBghgR5FVXj6eXweVUSv4PBPi3I6f0TVCGcjJk+KgBtR5cBvFIinQrE1qVGiMxCAwDEJ9Cqq1BabIElUy2cwOzLbcgkaRNUxpwl1QaA+AVei6vh+I1wCFC1aRZSq/oDzBAQgID2LKm8Eot034WhEiey5wakuFwip+MblTA3cA8h8h0CXBNyJquP6jYBJ9sJ2yyMeugRKWxCAwOAJNBdVg+8aBkIAAn0SMIqqPg2ibQhAAAKOCSCqHAOmegjMlQCiaq4jT78hMF8CiKr5jj09h4BTAogqp3ipHAIQGCABRNUABwWTIDAFAoiqKYwifYAABOoQQFTVoUVZCEDAmgCiyhoVBSEAgYkQQFRNZCDpBgSGRgBRNbQRwR4IQMA1AaOo+vr6OkQNn5yc+H9UP3NtC/VDAAIQgAAEIACB0RIwaabFQX2iHplU12h7i+EQgEBnBIhUdYaahiAAgYEQYPlvIAOBGRCYGgFE1dRGlP5AAAJVBBBVVYT4HgIQaEQAUdUIGw9BAAIjJoCoGvHgYToEhkwAUTXk0cE2CEDABYHmosq/cPTFbJN2QXK10dk7t4ru6LMtp24TvF1IYhp3eFWPASUgcHwCxXf/DchvlPkxHwn+4/gzgxohMF0CLUXVTtb7rdydNgUUCqXzVzk8X/mVBIIoK6zqlft4OEhYnUSXLN+8Jj9rai3PQQAC9gTcXahczx/cV/oXU5/ybdj3nJIQgMBcCfQqqgLBcy6vh2cJJJX3CZzZZrWXbajWbMvJ25M8Le9yIs8XapIIt7kONv2GQJcEXIkqW39gW87IJIxg8TLW5YyhLQiMn0CPoiovnmJZ5YmtzUr22zs5NYgsc7niwfCda1zf+AeNHkBgDATciKpu/IY5Yj4G6tgIAQj0SaBHUfUmt4trUWGqeKkuBuG/JXpfeREs23LFGH0HuVuHIq1P3LQNgfkQcCOqbP2BbTnTeATP7tZJtHw+o0ZPIQCBNgT6E1WfT3K5vJfzQlEV5muJZbnCvK7iN9s24HgWAhAoJ+BEVHXhN/yXurb5oswOCEBgjgRaiirTLh7L3TK+c9zIypTorn/niyqLcgWiKsirkJYJ9XOcGvQZAu0I1Nv9NxS/ESaoC5HtdqPP0xCYJ4GWoqrF21wXoip8q1WKKk56n+cw02sIdE/AXaTK4iWr6ctYWSSse4S0CAEIjIyAU1GVPi8qJHMRvgGWiSo9/F7mHEvD9EFexEutM7NGNnqYC4EBE2gqqvr0G+YdgwOGjGkQgMCgCDgVVaU9rcyNCBPVbculGiOEP6hZhjGzJNBUVPXuN7RzrWY5cHQaAhBoTKA/UWV9VILtFuqIQXTyetHJ7I1Z8SAEIFCDgBNR5cxvqI6RoF5jdCkKAQiYCPQoqtQxn8bzowoO/8ydM2UWW5wvw0SHwDAIuBFVbvyGR4yjV4Yxb7ACAmMm0KuoUm4sl/dkdmx25QJBZbmLaMyjhu0QGAEBV6Lq2H4jQMnZVCOYUpgIgcET6FlUJc4sPpwhSmTPoQuFVfTzXLnM99nnC+sd/BhhIARGScCdqDqm3wjQkqA+yimG0RAYHIHmompwXcEgCEBgSASMompIBmILBCAAgSMTQFQdGSjVQQACAQFEFTMBAhCYGwFE1dxGnP5CoCMCiKqOQNMMBCAwGAKIqsEMBYZAYFoEEFXTGk96AwEIVBNAVFUzogQEINCAAKKqATQegQAERk0AUTXq4cN4CAyXAKJquGODZRCAgBsCRlH19fV1iJo7OTnx/6h+5sYCaoUABCAAAQhAAAITIGDSTIuD+kR9M6muCfSbLkAAAo4JEKlyDJjqIQCBwRFg+W9wQ4JBEJgGAUTVNMaRXkAAAvYEEFX2rCgJAQjUIICoqgGLohCAwCQIIKomMYx0AgLDI4CoGt6YYBEEIOCWQHNR9XYri+v4xr60lTevcni+srT8U54ul3L/HhW/kdfDs+SftiyXtauWLZYmUwwCEKgkUHz33wD9hmT9CxezVw4wBSAAgRyBlqJqJ+v9Vu5Om5INHdl5IsLebhdy/ZIVVpblPp/k8tc32caCLrxkmcuUmw4Qz0GgMQF3Fypb+oNIKFX6l9BP6C9g4cvZzetBrN8PG5PiQQhAYCoEehVV5pvhA4e5We1lG6o123LGQfGdY1vxN5Xhph8Q6I6AK1Fl6w9qldusZL+9k+T9MC/cuiNHSxCAwFgJ9Ciq8uIpgug7w9jJ2ZYrGAIverXcyKpVRG2sw4vdEOiPgBtRZesPbMuJ+NHx3TojqsKfS51Uhv5Y0zIEIDAMAj2KqiDkrhKo8uF1P7rkfeXlVtmWKwCaqmsY0LECAnMg4EZU2foD23IiQURLMqkMwfO7dRIxn8OY0UcIQKAdgf5ElR9BupfzQlEVLtmJZTlTXldZG+248TQEIFBBwImocuI3oiT1KDmdXEwmNwQg0IxAS1Fl2sVjuWumbFlO/84XVQXLd4Y6grfOaCth0U7CZrB4CgIQsCdQb/dfv37D65XuOy6IUNkPNCUhAIGYQEtR1SIB3JGoSo8tb5zMdQj0RcBdpMriJavmy1iw61iRulnLencfHPHCruG+pg7tQmC0BJyKqthR6XgiR1UmqvQde2XO0WpnH7kRo52dGD5qAk1FVdd+I2gvEykLlxnfOedu1HMQ4yHQNQGnoqq0M5W5EWGium25ksZ8p8kunq7nFu3NnEBTUdWt3yh+6TIfyTDzQaX7EIBAKYH+RFV4MJ9+HlVk6VGPVFCVIqr4VwCB7gk4EVXH9huVL20tUhy6R06LEIBAzwR6FFVhYmjBoXu5wz8typlZlmyt7hk+zUNgygTciKpj+w0iVVOeg/QNAl0T6FVUqRiSfxbMi5a3YD6Iz6acty36h8hv/docEtW7nlC0B4GIgCtRdVy/kez6S11JE15Twy5A5jMEIFCHQM+iyjM1FD6R1YU7bmzKZS9F9TbwcHhfnQlBWQgci4A7UXVsv+G5oewF8ZZHPBwLFvVAAAKTINBcVE2i+3QCAhBwRcAoqlw1Rr0QgAAEBkAAUTWAQcAECEyRAKJqiqNKnyAAgTICiCrmBwQg4IQAosoJViqFAAQGTABRNeDBwTQIjJkAomrMo4ftEIBAEwKIqibUeAYCEKgkgKiqREQBCEBgYgQQVRMbULoDgaEQQFQNZSSwAwIQ6IqAUVR9fX0dIgNOTk78P6qfdWUT7UAAAhCAAAQgAIHRETBppsVBfaKemFTX6HqJwRCAQOcEiFR1jpwGIQCBngmw/NfzANA8BKZKAFE11ZGlXxCAQBEBRBVzAwIQcEIAUeUEK5VCAAIDJoCoGvDgYBoExkwAUTXm0cN2CECgCQFEVRNqPAMBCFQSQFRVIqIABCAwMQLNRVXuAlKNzM2rHJ6vLFFlL0G+kdfDs+Sfti2nNRvZWMseS7MpBgEIlBIovlD5xfxcrX+ntv7AtlzmwnYp8kMMOgQgAIFiAi1F1U7W+63cnTZFHDq880SEvd0u5Pol69Bsy+l2eE7yUXYX7/Ku1d/UUp6DAATqESgWVQPzG59Pcrm8F+XMZBs6M7Mfqtd/SkMAAvMj0Kuo+ny6lOX9eSYyFQiozSpxcLblUpLKE2fyqv679v9vHzmb3ySgxxBwQcCVqLL1B7blfAGV8xFB5GqnCS0XjKgTAhCYFoEeRVVePEVofWe4Wcl+eyenYltOGxh/2U98saY8I6JqWnOW3oyEgBtRZesPbMsF4kk5C8lmLKT90EigYyYEINArgR5FVbEzE00UXYltuViS+ZGuj4fASZrfQntlTuMQmAUBN6LK1h9YlguX/s4Noirth2YxZHQSAhBoSaA/UVXpzMK8CwnyHYqdXjo/I/t2iahqOUN4HAINCTgRVUf3GxWRqlx6QkMYPAYBCMyCQEtRZdrFc2GXvO47x42sTInu+ne+qLIo5yXLG+pEVM1iHtPJARKot/uvL7+R3wQToSRZfYCTCpMgMHACLUVVi108RxdVZueIqBr4DMS8yRJwF6myeMmq8zIWHr1yoSWlB0nu72psOFphshOUjkHAAQGnoip408tYfbEOEtDLRJXv5PTlvwInqpfbJ8np+hlXiCoHs4YqIWBBoKmo6tRvRMfBhMuKnozyP56feviQ5eNZuGHGosMUgQAEZk/AqagqpVuZGxHs3ruyKvdT/qrkdP/FsuSjv4nOfuQBAAHHBJqKqu78humQ4aR1P1r18cBxLI7nCdVDYEoE+hNV1kcl2G6NNg8LkaopTVf6MiYCTkRVR37D4+z5jj/f80ctjGkMsBUCEOiWQI+iyssr18+jijpecPhnfG5VcTkTOkRVtxOK1iAQEXAjqrrxG8Gmlw95MF6ZxRhDAAIQMBPoVVSpd0H/4L0X7c4vXwTtwryr2GbbcvlOIqqY+hDoh4ArUXV0v6FyMy///oyvqAkEVcExLv2gpFUIQGAkBHoWVX6QPRBWEbAokT0H0LZc+kFE1UhmImZOjoA7UXV8v5FOjmfH3+QmIx2CQEcEmouqjgykGQhAYJwEjKJqnF3BaghAAAJWBBBVVpgoBAEI1CWAqKpLjPIQgMDYCSCqxj6C2A+BgRJAVA10YDALAhBwRgBR5QwtFUNg3gQQVfMef3oPgTkSQFTNcdTpMwQ6IICo6gAyTUAAAoMiYC2qBmU1xkAAAhCAAAQgAIGBEjgcDrFli6+vr/hvJycnAzUZsyAAAQhAAAIQgMDwCCgdlYgqpbBiUWUKZQ3PfCyCAAQgAAEIQAAC/RKwXv7TQ1n9mkzrEIAABCAAAQhAYHgEEFXDGxMsggAEIAABCEBghAQQVSMcNEyGgAsCb7eX8igr+f18J6d6A+ouvNsfG5GHrTxfWbTs3aX3qIr/fpar00/5/Kx45vQ03Z5FExSBAAQgMEQCiKohjgo2QaArAp9v8rYPGvv7eC33ciPrh+/yzfvB8kqJIvX/OhcMh2XfVT2vh2dRF3vKdXyxp7lTF+t96jLj218fuYJnZ9/ln7srxFdX84J2IACBRgQQVY2w8RAEpkHg8+lSlvfvxs7EYsdSVH2qCNUPpaDe5ULW+63c+eGumpEqVceiUIVdyM2rZbRsGsNDLyAAgZERMImq/wMkhsmvB4QqaQAAAABJRU5ErkJggg==;" vertex="1" parent="1">
          <mxGeometry x="30" y="20" width="422" height="96.84" as="geometry" />
        </mxCell>
        <mxCell id="Bdl3RD1hWaTJGVJCpAx7-12" style="edgeStyle=orthogonalEdgeStyle;rounded=0;orthogonalLoop=1;jettySize=auto;html=1;exitX=0.5;exitY=0;exitDx=0;exitDy=0;exitPerimeter=0;strokeColor=#FF0000;" edge="1" parent="1" source="Bdl3RD1hWaTJGVJCpAx7-8" target="Bdl3RD1hWaTJGVJCpAx7-1">
          <mxGeometry relative="1" as="geometry" />
        </mxCell>
        <mxCell id="Bdl3RD1hWaTJGVJCpAx7-8" value="" style="shape=corner;whiteSpace=wrap;html=1;dx=82;dy=32;rotation=-180;fillColor=none;shadow=1;strokeColor=#FF0000;" vertex="1" parent="1">
          <mxGeometry x="30" y="28.42" width="258" height="80" as="geometry" />
        </mxCell>
        <mxCell id="Bdl3RD1hWaTJGVJCpAx7-10" style="edgeStyle=orthogonalEdgeStyle;rounded=0;orthogonalLoop=1;jettySize=auto;html=1;exitX=0;exitY=0.5;exitDx=0;exitDy=0;" edge="1" parent="1" source="Bdl3RD1hWaTJGVJCpAx7-9" target="Bdl3RD1hWaTJGVJCpAx7-2">
          <mxGeometry relative="1" as="geometry" />
        </mxCell>
        <mxCell id="Bdl3RD1hWaTJGVJCpAx7-9" value="" style="rounded=1;whiteSpace=wrap;html=1;fillColor=none;" vertex="1" parent="1">
          <mxGeometry x="30" y="40" width="70" height="30" as="geometry" />
        </mxCell>
        <mxCell id="Bdl3RD1hWaTJGVJCpAx7-14" value="&lt;div&gt;&lt;font style=&quot;font-size: 18px;&quot;&gt;已完工須解除&lt;/font&gt;&lt;/div&gt;&lt;div&gt;&lt;font size=&quot;3&quot;&gt;bypass的表單&lt;/font&gt;&lt;/div&gt;" style="rounded=1;whiteSpace=wrap;html=1;" vertex="1" parent="1">
          <mxGeometry x="30" y="-40" width="420" height="60" as="geometry" />
        </mxCell>
      </root>
    </mxGraphModel>
  </diagram>
</mxfile>
